<mxfile host="app.diagrams.net" agent="Mozilla/5.0 (Windows NT 10.0; Win64; x64) AppleWebKit/537.36 (KHTML, like Gecko) Chrome/130.0.0.0 Safari/537.36" version="24.8.3">
  <diagram name="Page-1" id="qgboC0yW0NJ7pntvo6_7">
    <mxGraphModel dx="988" dy="521" grid="1" gridSize="10" guides="1" tooltips="1" connect="1" arrows="1" fold="1" page="1" pageScale="1" pageWidth="1169" pageHeight="827" math="1" shadow="0">
      <root>
        <mxCell id="0" />
        <mxCell id="1" parent="0" />
        <mxCell id="w4ypoUHhYFHXSaaBUVkP-3" value="IOA" style="rounded=0;whiteSpace=wrap;html=1;" parent="1" vertex="1">
          <mxGeometry x="800" y="320" width="40" height="40" as="geometry" />
        </mxCell>
        <mxCell id="w4ypoUHhYFHXSaaBUVkP-5" value="" style="shape=flexArrow;endArrow=classic;html=1;rounded=0;entryX=0.5;entryY=1;entryDx=0;entryDy=0;" parent="1" target="w4ypoUHhYFHXSaaBUVkP-3" edge="1">
          <mxGeometry width="50" height="50" relative="1" as="geometry">
            <mxPoint x="820" y="400" as="sourcePoint" />
            <mxPoint x="610" y="450" as="targetPoint" />
          </mxGeometry>
        </mxCell>
        <mxCell id="w4ypoUHhYFHXSaaBUVkP-6" value="" style="shape=flexArrow;endArrow=classic;html=1;rounded=0;exitX=0.5;exitY=0;exitDx=0;exitDy=0;" parent="1" source="w4ypoUHhYFHXSaaBUVkP-3" edge="1">
          <mxGeometry width="50" height="50" relative="1" as="geometry">
            <mxPoint x="560" y="500" as="sourcePoint" />
            <mxPoint x="820" y="270" as="targetPoint" />
          </mxGeometry>
        </mxCell>
        <mxCell id="w4ypoUHhYFHXSaaBUVkP-34" value="" style="shape=link;html=1;rounded=0;width=20.285714285714285;fillColor=#d5e8d4;strokeColor=#82b366;shadow=0;flowAnimation=0;targetPerimeterSpacing=6;sourcePerimeterSpacing=6;endSize=10;startSize=10;" parent="1" edge="1">
          <mxGeometry width="100" relative="1" as="geometry">
            <mxPoint x="520" y="410" as="sourcePoint" />
            <mxPoint x="1169" y="410" as="targetPoint" />
          </mxGeometry>
        </mxCell>
        <mxCell id="w4ypoUHhYFHXSaaBUVkP-38" value="Control Unit (CU)" style="rounded=1;whiteSpace=wrap;html=1;" parent="1" vertex="1">
          <mxGeometry x="600" y="460" width="450" height="110" as="geometry" />
        </mxCell>
        <mxCell id="w4ypoUHhYFHXSaaBUVkP-58" value="" style="endArrow=classic;html=1;rounded=0;entryX=0.285;entryY=1.01;entryDx=0;entryDy=0;entryPerimeter=0;fillColor=#e1d5e7;strokeColor=#9673a6;" parent="1" target="w4ypoUHhYFHXSaaBUVkP-38" edge="1">
          <mxGeometry width="50" height="50" relative="1" as="geometry">
            <mxPoint x="728" y="630" as="sourcePoint" />
            <mxPoint x="801" y="210" as="targetPoint" />
          </mxGeometry>
        </mxCell>
        <mxCell id="w4ypoUHhYFHXSaaBUVkP-59" value="" style="endArrow=classic;html=1;rounded=0;fillColor=#e1d5e7;strokeColor=#9673a6;exitX=0.744;exitY=1.002;exitDx=0;exitDy=0;exitPerimeter=0;" parent="1" source="w4ypoUHhYFHXSaaBUVkP-38" edge="1">
          <mxGeometry width="50" height="50" relative="1" as="geometry">
            <mxPoint x="771" y="390" as="sourcePoint" />
            <mxPoint x="935" y="630" as="targetPoint" />
          </mxGeometry>
        </mxCell>
        <mxCell id="52XWabdc6ym4Zlq44dFy-5" value="$$IOS_{i}$$" style="rounded=0;whiteSpace=wrap;html=1;" vertex="1" parent="1">
          <mxGeometry x="600" y="320" width="40" height="40" as="geometry" />
        </mxCell>
        <mxCell id="52XWabdc6ym4Zlq44dFy-6" value="$$IOD_{i}$$" style="rounded=0;whiteSpace=wrap;html=1;" vertex="1" parent="1">
          <mxGeometry x="520" y="320" width="40" height="40" as="geometry" />
        </mxCell>
        <mxCell id="52XWabdc6ym4Zlq44dFy-7" value="$$IOC_{i}$$" style="rounded=0;whiteSpace=wrap;html=1;" vertex="1" parent="1">
          <mxGeometry x="680" y="320" width="40" height="40" as="geometry" />
        </mxCell>
        <mxCell id="52XWabdc6ym4Zlq44dFy-8" value="$$IOS_{o}$$" style="rounded=0;whiteSpace=wrap;html=1;" vertex="1" parent="1">
          <mxGeometry x="999" y="320" width="40" height="40" as="geometry" />
        </mxCell>
        <mxCell id="52XWabdc6ym4Zlq44dFy-9" value="$$IOD_{o}$$" style="rounded=0;whiteSpace=wrap;html=1;" vertex="1" parent="1">
          <mxGeometry x="1079" y="320" width="40" height="40" as="geometry" />
        </mxCell>
        <mxCell id="52XWabdc6ym4Zlq44dFy-10" value="$$IOC_{o}$$" style="rounded=0;whiteSpace=wrap;html=1;" vertex="1" parent="1">
          <mxGeometry x="919" y="320" width="40" height="40" as="geometry" />
        </mxCell>
        <mxCell id="52XWabdc6ym4Zlq44dFy-11" value="Output Interface" style="rounded=1;whiteSpace=wrap;html=1;" vertex="1" parent="1">
          <mxGeometry x="919" y="240" width="120" height="40" as="geometry" />
        </mxCell>
        <mxCell id="52XWabdc6ym4Zlq44dFy-12" value="Input Interface" style="rounded=1;whiteSpace=wrap;html=1;" vertex="1" parent="1">
          <mxGeometry x="600" y="240" width="120" height="40" as="geometry" />
        </mxCell>
        <mxCell id="52XWabdc6ym4Zlq44dFy-13" value="Output Device" style="rounded=1;whiteSpace=wrap;html=1;" vertex="1" parent="1">
          <mxGeometry x="919" y="160" width="201" height="40" as="geometry" />
        </mxCell>
        <mxCell id="52XWabdc6ym4Zlq44dFy-14" value="Input Device" style="rounded=1;whiteSpace=wrap;html=1;" vertex="1" parent="1">
          <mxGeometry x="520" y="160" width="200" height="40" as="geometry" />
        </mxCell>
        <mxCell id="52XWabdc6ym4Zlq44dFy-15" value="" style="shape=flexArrow;endArrow=classic;startArrow=classic;html=1;rounded=0;exitX=1;exitY=0.5;exitDx=0;exitDy=0;entryX=0;entryY=0.5;entryDx=0;entryDy=0;" edge="1" parent="1" source="52XWabdc6ym4Zlq44dFy-12" target="52XWabdc6ym4Zlq44dFy-11">
          <mxGeometry width="100" height="100" relative="1" as="geometry">
            <mxPoint x="990" y="410" as="sourcePoint" />
            <mxPoint x="1090" y="310" as="targetPoint" />
          </mxGeometry>
        </mxCell>
        <mxCell id="52XWabdc6ym4Zlq44dFy-16" value="" style="shape=flexArrow;endArrow=classic;html=1;rounded=0;exitX=0.5;exitY=0;exitDx=0;exitDy=0;entryX=0.899;entryY=1.012;entryDx=0;entryDy=0;entryPerimeter=0;" edge="1" parent="1" source="52XWabdc6ym4Zlq44dFy-9" target="52XWabdc6ym4Zlq44dFy-13">
          <mxGeometry width="50" height="50" relative="1" as="geometry">
            <mxPoint x="1020" y="380" as="sourcePoint" />
            <mxPoint x="1070" y="330" as="targetPoint" />
          </mxGeometry>
        </mxCell>
        <mxCell id="52XWabdc6ym4Zlq44dFy-17" value="" style="shape=flexArrow;endArrow=classic;html=1;rounded=0;exitX=0.107;exitY=1.012;exitDx=0;exitDy=0;exitPerimeter=0;entryX=0.5;entryY=0;entryDx=0;entryDy=0;" edge="1" parent="1" source="52XWabdc6ym4Zlq44dFy-14" target="52XWabdc6ym4Zlq44dFy-6">
          <mxGeometry width="50" height="50" relative="1" as="geometry">
            <mxPoint x="1020" y="380" as="sourcePoint" />
            <mxPoint x="1070" y="330" as="targetPoint" />
          </mxGeometry>
        </mxCell>
        <mxCell id="52XWabdc6ym4Zlq44dFy-18" value="" style="shape=flexArrow;endArrow=classic;html=1;rounded=0;entryX=0.5;entryY=1;entryDx=0;entryDy=0;" edge="1" parent="1" target="52XWabdc6ym4Zlq44dFy-10">
          <mxGeometry width="50" height="50" relative="1" as="geometry">
            <mxPoint x="940" y="400" as="sourcePoint" />
            <mxPoint x="1050" y="340" as="targetPoint" />
          </mxGeometry>
        </mxCell>
        <mxCell id="52XWabdc6ym4Zlq44dFy-19" value="" style="shape=flexArrow;endArrow=classic;html=1;rounded=0;entryX=0.5;entryY=1;entryDx=0;entryDy=0;" edge="1" parent="1">
          <mxGeometry width="50" height="50" relative="1" as="geometry">
            <mxPoint x="700.5" y="400" as="sourcePoint" />
            <mxPoint x="699.5" y="360" as="targetPoint" />
          </mxGeometry>
        </mxCell>
        <mxCell id="52XWabdc6ym4Zlq44dFy-20" value="" style="shape=flexArrow;endArrow=classic;html=1;rounded=0;entryX=0.5;entryY=1;entryDx=0;entryDy=0;" edge="1" parent="1">
          <mxGeometry width="50" height="50" relative="1" as="geometry">
            <mxPoint x="1099.5" y="400" as="sourcePoint" />
            <mxPoint x="1098.5" y="360" as="targetPoint" />
          </mxGeometry>
        </mxCell>
        <mxCell id="52XWabdc6ym4Zlq44dFy-21" value="" style="shape=flexArrow;endArrow=classic;html=1;rounded=0;" edge="1" parent="1">
          <mxGeometry width="50" height="50" relative="1" as="geometry">
            <mxPoint x="1020" y="360" as="sourcePoint" />
            <mxPoint x="1020" y="400" as="targetPoint" />
          </mxGeometry>
        </mxCell>
        <mxCell id="52XWabdc6ym4Zlq44dFy-22" value="" style="shape=flexArrow;endArrow=classic;html=1;rounded=0;" edge="1" parent="1">
          <mxGeometry width="50" height="50" relative="1" as="geometry">
            <mxPoint x="619.71" y="360" as="sourcePoint" />
            <mxPoint x="619.71" y="400" as="targetPoint" />
          </mxGeometry>
        </mxCell>
        <mxCell id="52XWabdc6ym4Zlq44dFy-23" value="" style="shape=flexArrow;endArrow=classic;html=1;rounded=0;" edge="1" parent="1">
          <mxGeometry width="50" height="50" relative="1" as="geometry">
            <mxPoint x="539.71" y="360" as="sourcePoint" />
            <mxPoint x="539.71" y="400" as="targetPoint" />
          </mxGeometry>
        </mxCell>
        <mxCell id="52XWabdc6ym4Zlq44dFy-24" value="" style="shape=flexArrow;endArrow=classic;html=1;rounded=0;" edge="1" parent="1">
          <mxGeometry width="50" height="50" relative="1" as="geometry">
            <mxPoint x="1018.71" y="280" as="sourcePoint" />
            <mxPoint x="1018.71" y="320" as="targetPoint" />
          </mxGeometry>
        </mxCell>
        <mxCell id="52XWabdc6ym4Zlq44dFy-25" value="" style="shape=flexArrow;endArrow=classic;html=1;rounded=0;" edge="1" parent="1">
          <mxGeometry width="50" height="50" relative="1" as="geometry">
            <mxPoint x="619.71" y="280" as="sourcePoint" />
            <mxPoint x="619.71" y="320" as="targetPoint" />
          </mxGeometry>
        </mxCell>
        <mxCell id="52XWabdc6ym4Zlq44dFy-26" value="" style="shape=flexArrow;endArrow=classic;html=1;rounded=0;entryX=0.5;entryY=1;entryDx=0;entryDy=0;" edge="1" parent="1">
          <mxGeometry width="50" height="50" relative="1" as="geometry">
            <mxPoint x="700.5" y="320" as="sourcePoint" />
            <mxPoint x="699.5" y="280" as="targetPoint" />
          </mxGeometry>
        </mxCell>
        <mxCell id="52XWabdc6ym4Zlq44dFy-27" value="" style="shape=flexArrow;endArrow=classic;html=1;rounded=0;entryX=0.5;entryY=1;entryDx=0;entryDy=0;" edge="1" parent="1">
          <mxGeometry width="50" height="50" relative="1" as="geometry">
            <mxPoint x="939.5" y="320" as="sourcePoint" />
            <mxPoint x="938.5" y="280" as="targetPoint" />
          </mxGeometry>
        </mxCell>
        <mxCell id="52XWabdc6ym4Zlq44dFy-28" value="" style="endArrow=classic;html=1;rounded=0;exitX=0.25;exitY=0;exitDx=0;exitDy=0;entryX=0.15;entryY=1.042;entryDx=0;entryDy=0;entryPerimeter=0;fillColor=#e1d5e7;strokeColor=#9673a6;" edge="1" parent="1" source="52XWabdc6ym4Zlq44dFy-11" target="52XWabdc6ym4Zlq44dFy-13">
          <mxGeometry width="50" height="50" relative="1" as="geometry">
            <mxPoint x="1000" y="390" as="sourcePoint" />
            <mxPoint x="1050" y="340" as="targetPoint" />
          </mxGeometry>
        </mxCell>
        <mxCell id="52XWabdc6ym4Zlq44dFy-30" value="" style="endArrow=classic;startArrow=classic;html=1;rounded=0;entryX=0.5;entryY=1;entryDx=0;entryDy=0;exitX=0.829;exitY=-0.025;exitDx=0;exitDy=0;exitPerimeter=0;fillColor=#e1d5e7;strokeColor=#9673a6;" edge="1" parent="1" source="52XWabdc6ym4Zlq44dFy-11" target="52XWabdc6ym4Zlq44dFy-13">
          <mxGeometry width="50" height="50" relative="1" as="geometry">
            <mxPoint x="1000" y="390" as="sourcePoint" />
            <mxPoint x="1050" y="340" as="targetPoint" />
          </mxGeometry>
        </mxCell>
        <mxCell id="52XWabdc6ym4Zlq44dFy-31" value="" style="endArrow=classic;startArrow=classic;html=1;rounded=0;exitX=0.829;exitY=-0.025;exitDx=0;exitDy=0;exitPerimeter=0;fillColor=#e1d5e7;strokeColor=#9673a6;" edge="1" parent="1">
          <mxGeometry width="50" height="50" relative="1" as="geometry">
            <mxPoint x="680" y="240" as="sourcePoint" />
            <mxPoint x="680" y="200" as="targetPoint" />
          </mxGeometry>
        </mxCell>
        <mxCell id="52XWabdc6ym4Zlq44dFy-32" value="" style="endArrow=classic;html=1;rounded=0;exitX=0.25;exitY=0;exitDx=0;exitDy=0;entryX=0.15;entryY=1.042;entryDx=0;entryDy=0;entryPerimeter=0;fillColor=#e1d5e7;strokeColor=#9673a6;" edge="1" parent="1">
          <mxGeometry width="50" height="50" relative="1" as="geometry">
            <mxPoint x="630" y="240" as="sourcePoint" />
            <mxPoint x="630" y="202" as="targetPoint" />
          </mxGeometry>
        </mxCell>
        <mxCell id="52XWabdc6ym4Zlq44dFy-33" value="" style="endArrow=classic;html=1;rounded=0;exitX=0.129;exitY=0.002;exitDx=0;exitDy=0;exitPerimeter=0;entryX=0.5;entryY=1;entryDx=0;entryDy=0;fillColor=#f8cecc;strokeColor=#b85450;" edge="1" parent="1" source="w4ypoUHhYFHXSaaBUVkP-38" target="52XWabdc6ym4Zlq44dFy-12">
          <mxGeometry width="50" height="50" relative="1" as="geometry">
            <mxPoint x="680" y="430" as="sourcePoint" />
            <mxPoint x="730" y="380" as="targetPoint" />
          </mxGeometry>
        </mxCell>
        <mxCell id="52XWabdc6ym4Zlq44dFy-34" value="" style="endArrow=classic;html=1;rounded=0;exitX=0.129;exitY=0.002;exitDx=0;exitDy=0;exitPerimeter=0;entryX=0.5;entryY=1;entryDx=0;entryDy=0;fillColor=#f8cecc;strokeColor=#b85450;" edge="1" parent="1">
          <mxGeometry width="50" height="50" relative="1" as="geometry">
            <mxPoint x="978" y="460" as="sourcePoint" />
            <mxPoint x="980" y="280" as="targetPoint" />
          </mxGeometry>
        </mxCell>
      </root>
    </mxGraphModel>
  </diagram>
</mxfile>
